<svg width="1728" height="8" viewBox="0 0 1728 8" fill="none" xmlns="http://www.w3.org/2000/svg">
<rect width="258.278" height="8" transform="matrix(1 0 0 -1 0 8)" fill="#018347"/>
<rect width="81.4805" height="8" transform="matrix(1 0 0 -1 258.279 8)" fill="#F9B350"/>
<rect width="86.0926" height="8" transform="matrix(1 0 0 -1 339.758 8)" fill="#538CD1"/>
<rect width="152.199" height="8" transform="matrix(1 0 0 -1 962.395 8)" fill="#538CD1"/>
<rect width="89.1674" height="8" transform="matrix(1 0 0 -1 1114.59 8)" fill="#D91935"/>
<rect width="164.498" height="8" transform="matrix(1 0 0 -1 1355.96 8)" fill="#D91935"/>
<rect width="164.498" height="8" transform="matrix(1 0 0 -1 425.852 8)" fill="#F9B353"/>
<rect width="121.452" height="8" transform="matrix(1 0 0 -1 590.352 8)" fill="#048147"/>
<rect width="121.452" height="8" transform="matrix(1 0 0 -1 1606.55 8)" fill="#048147"/>
<rect width="156.812" height="8" transform="matrix(1 0 0 -1 711.803 8)" fill="#9452A1"/>
<rect width="86.0927" height="8" transform="matrix(1 0 0 -1 1520.46 8)" fill="#9452A1"/>
<rect width="93.7795" height="8" transform="matrix(1 0 0 -1 868.613 8)" fill="#29B67A"/>
<rect width="152.199" height="8" transform="matrix(1 0 0 -1 1203.76 8)" fill="#29B67A"/>
</svg>
