<?xml version="1.0" standalone="no"?>
<!DOCTYPE svg PUBLIC "-//W3C//DTD SVG 20010904//EN"
 "http://www.w3.org/TR/2001/REC-SVG-20010904/DTD/svg10.dtd">
<svg version="1.0" xmlns="http://www.w3.org/2000/svg"
 width="150.000000pt" height="150.000000pt" viewBox="0 0 150.000000 150.000000"
 preserveAspectRatio="xMidYMid meet">
<metadata>
Created by potrace 1.14, written by Peter Selinger 2001-2017
</metadata>
<g transform="translate(0.000000,150.000000) scale(0.100000,-0.100000)"
fill="#000000" stroke="none">
<path d="M663 1365 c-73 -22 -140 -72 -177 -132 -62 -100 -67 -189 -15 -283
l19 -35 -24 30 c-19 22 -26 26 -31 14 -3 -8 -4 -127 -3 -264 l3 -250 80 0 80
0 5 86 5 87 69 -84 68 -83 154 0 154 -1 0 260 0 260 -79 0 c-55 0 -81 -4 -84
-12 -2 -7 -2 -78 0 -158 l4 -145 -28 31 c-46 50 -215 266 -237 303 -27 46 -27
121 0 158 31 43 86 66 137 59 76 -12 112 -59 122 -158 l7 -68 80 0 81 0 -5 84
c-8 151 -84 255 -216 296 -74 23 -110 24 -169 5z m42 -705 c10 -11 16 -20 13
-20 -3 0 -13 9 -23 20 -10 11 -16 20 -13 20 3 0 13 -9 23 -20z"/>
<path d="M436 388 c8 -57 49 -146 82 -181 39 -42 101 -82 148 -95 159 -46 323
58 369 233 23 90 26 86 -67 83 l-82 -3 -6 -30 c-32 -155 -242 -153 -275 3 l-7
32 -84 0 -84 0 6 -42z"/>
</g>
</svg>
